<svg xmlns="http://www.w3.org/2000/svg" viewBox="0 0 100 125" x="0px" y="0px"><defs><style>.a{fill:#ffffff;}</style></defs><title>100icons2017</title><path class="a" d="M89.59,75.63H10.41a.85.85,0,0,1-.85-.85V50.6a37.07,37.07,0,0,1,37-37h6.83a37.07,37.07,0,0,1,37,37V74.78A.85.85,0,0,1,89.59,75.63Zm-78.34-1.7H88.74V50.6A35.37,35.37,0,0,0,53.42,15.28H46.58A35.37,35.37,0,0,0,11.26,50.6Z"/><path class="a" d="M28.84,69a.85.85,0,0,1-.8-.57l-3.19-9.16a.85.85,0,0,1,.5-1.07L40,52.61a.85.85,0,0,1,.61,1.59l-13.9,5.31,2.63,7.56L41,62.79a.85.85,0,1,1,.58,1.6L29.13,69A.84.84,0,0,1,28.84,69Z"/><path class="a" d="M70.17,70.26a.85.85,0,0,1-.41-.1L30.1,48.58a.85.85,0,0,1-.35-1.14l5.08-9.69A.85.85,0,0,1,36,37.4L75.66,59A.85.85,0,0,1,76,60.11L70.92,69.8a.85.85,0,0,1-.75.46ZM31.65,47.49,69.82,68.25l4.29-8.18L35.94,39.3Z"/><path class="a" d="M45.61,69.42a.84.84,0,0,1-.74-.42l-5.34-9.26a.85.85,0,0,1,.28-1.14L43.94,56a.85.85,0,0,1,.91,1.44L41.42,59.6l4.51,7.81,8.93-5.16a.85.85,0,0,1,.85,1.47L46,69.3A.85.85,0,0,1,45.61,69.42Z"/><path class="a" d="M67.89,56.56A.85.85,0,0,1,67.46,55l5.41-3.12-4.49-7.78L57.58,50.3a.85.85,0,1,1-.85-1.47l11.54-6.66a.85.85,0,0,1,1.16.31l5.34,9.26a.85.85,0,0,1-.31,1.16l-6.15,3.55A.85.85,0,0,1,67.89,56.56Z"/><path class="a" d="M62.15,40a.85.85,0,0,1-.79-1.17c0-.12.81-2.38-2.59-5.38a6.93,6.93,0,0,1-2.48-5.35,8.44,8.44,0,0,1,.89-3.61,7,7,0,0,0-4.65,6.56c0,3.41-1.57,5-3,5.45a2.85,2.85,0,0,1-3.26-1.38,4.61,4.61,0,0,1-.66-2A3.41,3.41,0,0,0,44.47,36a.85.85,0,1,1-1.68.24c-.55-3.87,3.66-5.85,3.84-5.93a.85.85,0,0,1,1,1.31,2.36,2.36,0,0,0,.07,2.67,1.17,1.17,0,0,0,1.34.6c.82-.22,1.78-1.35,1.78-3.81,0-7.56,8.29-8.92,8.38-8.93a.85.85,0,0,1,.68,1.49A6.63,6.63,0,0,0,58,28.13a5.21,5.21,0,0,0,1.91,4.06c4.39,3.88,3.09,7.16,3,7.3A.85.85,0,0,1,62.15,40Z"/><path class="a" d="M19,61.8a.84.84,0,0,1-.49-.16c-.12-.08-2.81-2.09-2.9-7s2.3-6.17,2.57-6.29a.85.85,0,0,1,1.2.8c0,.7.14,2.88,1.08,3.65a1.42,1.42,0,0,0,1.34.22c.31-.07.38-.18.4-.22.27-.45-.09-1.78-.43-3.07-.79-3-1.88-7.06.8-10.92a.85.85,0,0,1,1.53.32c.22,1.13.84,2.92,1.51,3.33a.3.3,0,0,0,.26,0,.85.85,0,0,1,.44,1.64,2,2,0,0,1-1.6-.25A4.89,4.89,0,0,1,23,41.54c-1,2.68-.24,5.44.37,7.74.49,1.86.88,3.32.24,4.39a2.21,2.21,0,0,1-1.47,1,3.12,3.12,0,0,1-2.8-.56,5,5,0,0,1-1.5-2.89,8,8,0,0,0-.56,3.39c.07,4,2.11,5.6,2.2,5.66A.85.85,0,0,1,19,61.8Z"/><path class="a" d="M81.29,64.69a.85.85,0,0,1-.43-1.59c.3-.18,2.86-1.81,1.42-5.31a9.15,9.15,0,0,1-.54-5.54c-1.17,1-2.25,2.27-2.15,3.6a.85.85,0,0,1-1.7.13c-.29-3.86,5.06-6.6,5.29-6.72a.85.85,0,0,1,1.07,1.26,7.06,7.06,0,0,0-.4,6.62,5.74,5.74,0,0,1-2.15,7.43A.85.85,0,0,1,81.29,64.69Z"/><path class="a" d="M26,75.28a.85.85,0,0,1-.85-.85V67.76a.85.85,0,0,1,1.7,0v6.67A.85.85,0,0,1,26,75.28Z"/><path class="a" d="M35.63,75.28a.85.85,0,0,1-.85-.85V67.76a.85.85,0,0,1,1.7,0v6.67A.85.85,0,0,1,35.63,75.28Z"/><path class="a" d="M45.21,75.28a.85.85,0,0,1-.85-.85V67.76a.85.85,0,0,1,1.7,0v6.67A.85.85,0,0,1,45.21,75.28Z"/><path class="a" d="M54.79,75.28a.85.85,0,0,1-.85-.85V67.76a.85.85,0,0,1,1.7,0v6.67A.85.85,0,0,1,54.79,75.28Z"/><path class="a" d="M64.37,75.28a.85.85,0,0,1-.85-.85V67.76a.85.85,0,0,1,1.7,0v6.67A.85.85,0,0,1,64.37,75.28Z"/><path class="a" d="M74,75.28a.85.85,0,0,1-.85-.85V67.76a.85.85,0,0,1,1.7,0v6.67A.85.85,0,0,1,74,75.28Z"/><path class="a" d="M83.54,75.28a.85.85,0,0,1-.85-.85V67.76a.85.85,0,0,1,1.7,0v6.67A.85.85,0,0,1,83.54,75.28Z"/><path class="a" d="M16.46,75.28a.85.85,0,0,1-.85-.85V67.76a.85.85,0,0,1,1.7,0v6.67A.85.85,0,0,1,16.46,75.28Z"/><path class="a" d="M85.6,68.1H14.4a.85.85,0,1,1,0-1.7H85.6a.85.85,0,1,1,0,1.7Z"/><path class="a" d="M92.9,86.42H7.1a.85.85,0,0,1-.85-.85V74.89A.85.85,0,0,1,7.1,74H92.9a.85.85,0,0,1,.85.85V85.57A.85.85,0,0,1,92.9,86.42Zm-85-1.7h84.1v-9H7.95Z"/><path class="a" d="M62.31,61.64a.85.85,0,0,1-.4-.1L31.8,45.35a.85.85,0,0,1,.8-1.5L62.72,60a.85.85,0,0,1-.4,1.6Z"/><path class="a" d="M69.16,61.48a.85.85,0,0,1-.41-.11L59.17,56A.85.85,0,1,1,60,54.53l9.58,5.36a.85.85,0,0,1-.42,1.59Z"/><path class="a" d="M29.75,62.41a.85.85,0,0,1-.31-1.64l6.29-2.43a.85.85,0,1,1,.61,1.59l-6.29,2.43A.85.85,0,0,1,29.75,62.41Z"/></svg>